<svg width="40" height="35" viewBox="0 0 40 35" fill="none" xmlns="http://www.w3.org/2000/svg">
<path d="M7.13568 35C5.66164 35 4.42211 34.6212 3.41708 33.8636C2.47906 33.1061 1.64154 32.3106 0.904523 31.4773C0.636516 30.6439 0.40201 29.7348 0.201005 28.75C0.0670018 27.7652 0 26.7424 0 25.6818C0 21.8182 0.737018 18.4091 2.21106 15.4545C3.75209 12.4242 5.76214 9.69697 8.24121 7.27273C10.7203 4.77273 13.4338 2.34849 16.3819 0L19.196 3.63636C17.1859 5.5303 15.4104 7.42424 13.8693 9.31818C12.3953 11.1364 10.9883 13.1061 9.64824 15.2273L12.6633 18.8636C13.4673 19.8485 14.1039 20.9848 14.5729 22.2727C15.1089 23.4848 15.3769 24.7727 15.3769 26.1364C15.3769 28.7121 14.5394 30.8333 12.8643 32.5C11.2563 34.1667 9.34673 35 7.13568 35ZM27.9397 35C26.4657 35 25.2261 34.6212 24.2211 33.8636C23.2831 33.1061 22.4456 32.3106 21.7085 31.4773C21.4405 30.6439 21.206 29.7348 21.005 28.75C20.871 27.7652 20.804 26.7424 20.804 25.6818C20.804 21.8182 21.541 18.4091 23.0151 15.4545C24.5561 12.4242 26.5662 9.69697 29.0452 7.27273C31.5243 4.77273 34.2379 2.34849 37.1859 0L40 3.63636C37.9899 5.5303 36.2144 7.42424 34.6734 9.31818C33.1993 11.1364 31.7923 13.1061 30.4523 15.2273L33.4673 18.8636C34.2714 19.8485 34.9079 20.9848 35.3769 22.2727C35.9129 23.4848 36.1809 24.7727 36.1809 26.1364C36.1809 28.7121 35.3434 30.8333 33.6683 32.5C32.0603 34.1667 30.1508 35 27.9397 35Z" fill="#A66F00"/>
</svg>
