<svg width="40" height="35" viewBox="0 0 40 35" fill="none" xmlns="http://www.w3.org/2000/svg">
<path d="M32.8643 0C34.3384 0 35.5779 0.37879 36.5829 1.13637C37.5879 1.89394 38.4255 2.6894 39.0955 3.52273C39.3635 4.35606 39.5645 5.26516 39.6985 6.25C39.8995 7.23485 40 8.25758 40 9.31818C40 13.1818 39.2295 16.6288 37.6884 19.6591C36.2144 22.6136 34.2379 25.3409 31.7588 27.8409C29.2797 30.2652 26.5662 32.6515 23.6181 35L20.804 31.3636C22.8141 29.4697 24.5896 27.6136 26.1307 25.7955C27.6717 23.9015 29.0787 21.8939 30.3518 19.7727L27.3367 16.1364C26.5327 15.0758 25.8626 13.9394 25.3266 12.7273C24.8576 11.5152 24.6231 10.2273 24.6231 8.86364C24.6231 6.28788 25.4271 4.16667 27.0352 2.5C28.7102 0.833334 30.6533 0 32.8643 0ZM12.0603 0C13.5343 0 14.7739 0.37879 15.7789 1.13637C16.7839 1.89394 17.6214 2.6894 18.2915 3.52273C18.5595 4.35606 18.7605 5.26516 18.8945 6.25C19.0955 7.23485 19.196 8.25758 19.196 9.31818C19.196 13.1818 18.4255 16.6288 16.8844 19.6591C15.4104 22.6136 13.4338 25.3409 10.9548 27.8409C8.47571 30.2652 5.76215 32.6515 2.81407 35L0 31.3636C2.01005 29.4697 3.78559 27.6136 5.32663 25.7955C6.86767 23.9015 8.27471 21.8939 9.54774 19.7727L6.53266 16.1364C5.72864 15.0758 5.05863 13.9394 4.52261 12.7273C4.0536 11.5152 3.8191 10.2273 3.8191 8.86364C3.8191 6.28788 4.62312 4.16667 6.23116 2.5C7.9062 0.833334 9.84925 0 12.0603 0Z" fill="#A66F00"/>
</svg>
